<svg width="11" height="22" viewBox="0 0 11 22" fill="none" xmlns="http://www.w3.org/2000/svg">
<path d="M10.8629 8.05932C10.8463 8.20054 10.8319 8.33257 10.8153 8.46404C10.7567 8.93419 10.6987 9.40492 10.6384 9.87508C10.5583 10.5014 10.4759 11.1271 10.3941 11.7528C10.3852 11.8206 10.3924 11.9107 10.3537 11.948C10.3189 11.9819 10.2321 11.9589 10.168 11.9589C9.17616 11.9589 8.1838 11.9589 7.19199 11.9584C7.17651 11.9584 7.16048 11.9601 7.13449 11.9618C7.13449 12.0083 7.13449 12.0531 7.13449 12.0973C7.1356 15.2954 7.13615 18.4935 7.1367 21.6922C7.1367 21.7754 7.13283 21.8592 7.13449 21.9425C7.13504 21.9861 7.11901 22.0039 7.0781 21.9993C7.06649 21.9981 7.05488 21.9993 7.04382 21.9993C5.81263 21.9993 4.582 21.9993 3.35081 21.9993C3.32372 21.9993 3.29718 21.9993 3.26125 21.9993C3.26125 21.9367 3.26125 21.8822 3.26125 21.8282C3.26125 18.6703 3.26125 15.513 3.26125 12.355C3.26125 12.25 3.25738 12.1449 3.26014 12.0399C3.2618 11.9802 3.24632 11.9578 3.18329 11.9578C2.55194 11.9601 1.92004 11.9589 1.28869 11.9589C0.880133 11.9589 0.471026 11.9578 0.0624717 11.9601C0.00165854 11.9601 0.00276424 11.9291 0.00276424 11.8849C0.00276424 10.9779 0.00276424 10.0708 0.00221139 9.16382C0.00221139 8.81536 0.00221139 8.4669 0 8.11845C0 8.06563 0.0199025 8.05243 0.0646831 8.05243C0.207318 8.05358 0.349399 8.05243 0.492034 8.05243C1.37825 8.05243 2.26501 8.05301 3.15123 8.05243C3.28557 8.05243 3.2629 8.06449 3.2629 7.93475C3.2618 7.17813 3.26014 6.42152 3.2629 5.6649C3.26401 5.30956 3.2712 4.95364 3.28059 4.59829C3.28833 4.29921 3.3497 4.00816 3.40664 3.71596C3.4857 3.30895 3.6123 2.91973 3.78313 2.54717C4.08609 1.88699 4.52063 1.33876 5.09559 0.911086C5.66447 0.488001 6.30135 0.237135 6.98301 0.106823C7.49439 0.0092323 8.01352 -0.0143043 8.53375 0.00751012C8.95557 0.0253061 9.3785 0.0362133 9.80032 0.0597499C10.1807 0.0809902 10.5605 0.117156 10.9403 0.144137C11.0011 0.14873 11 0.184896 11 0.231395C10.9983 1.24117 10.9978 2.25037 10.9972 3.26015C10.9972 3.37496 10.9978 3.4892 10.9994 3.60402C11 3.6465 10.9862 3.6597 10.9425 3.6597C10.3018 3.6574 9.661 3.65224 9.02081 3.6597C8.74383 3.66314 8.46464 3.66085 8.19319 3.73949C7.82279 3.84627 7.51596 4.04145 7.33407 4.40943C7.23069 4.61896 7.18922 4.84686 7.17043 5.07764C7.15108 5.32219 7.14057 5.56789 7.13891 5.81358C7.13449 6.5392 7.13781 7.26482 7.13505 7.99043C7.13505 8.05301 7.16435 8.05301 7.20691 8.05243C7.56958 8.05186 7.9328 8.05128 8.29547 8.05186C9.12695 8.05186 9.95788 8.05301 10.7894 8.05415C10.8098 8.05415 10.8297 8.05588 10.8634 8.0576L10.8629 8.05932Z" fill="#00008E"/>
</svg>
