<svg width="19" height="19" viewBox="0 0 19 19" fill="none" xmlns="http://www.w3.org/2000/svg">
<g clip-path="url(#clip0_108_9753)">
<path d="M10.09 7.77002C10.14 7.70002 10.18 7.66002 10.21 7.60002C10.75 6.73002 11.54 6.20002 12.52 5.92002C13.12 5.75002 13.74 5.74002 14.36 5.80002C14.73 5.83002 15.09 5.89002 15.45 6.00002C16.28 6.24002 16.95 6.71002 17.42 7.45002C17.7 7.90002 17.87 8.39002 18 8.90002C18.08 9.22002 18.12 9.55002 18.16 9.87002C18.25 10.53 18.26 11.2 18.26 11.87C18.26 13.94 18.26 16.01 18.26 18.09C18.26 18.24 18.26 18.24 18.11 18.24C16.95 18.24 15.79 18.24 14.62 18.24C14.57 18.24 14.52 18.24 14.47 18.24C14.47 18.21 14.47 18.19 14.47 18.16C14.47 16.2 14.47 14.25 14.47 12.29C14.47 11.82 14.44 11.35 14.4 10.89C14.38 10.55 14.27 10.22 14.11 9.92002C13.86 9.45002 13.46 9.19002 12.93 9.11002C12.51 9.04002 12.09 9.07002 11.67 9.19002C11.16 9.34002 10.8 9.67002 10.58 10.14C10.39 10.55 10.29 10.99 10.27 11.44C10.26 11.66 10.25 11.88 10.25 12.09C10.25 14.1 10.25 16.1 10.25 18.11C10.25 18.29 10.27 18.26 10.09 18.26C8.9 18.26 7.71 18.26 6.52 18.26C6.5 18.26 6.47 18.26 6.44 18.26V6.07002C6.44 6.07002 6.49 6.07002 6.51 6.07002C7.66 6.07002 8.8 6.07002 9.95 6.07002C10.08 6.07002 10.07 6.06002 10.07 6.19002C10.07 6.70002 10.07 7.22002 10.07 7.73002C10.07 7.73002 10.07 7.74002 10.08 7.78002L10.09 7.77002Z" fill="#00008E"/>
<path d="M4.06999 18.2599C4.06999 18.2599 3.97999 18.2599 3.93999 18.2599C2.75999 18.2599 1.56999 18.2599 0.389994 18.2599C0.309994 18.2599 0.299994 18.2399 0.299994 18.1599C0.299994 18.0299 0.299994 17.8999 0.299994 17.7699C0.299994 13.9299 0.299994 10.0899 0.299994 6.24988C0.299994 6.22988 0.299994 6.21988 0.299994 6.19988C0.299994 6.03988 0.279994 6.05988 0.439994 6.05988C1.58999 6.05988 2.74999 6.05988 3.89999 6.05988C3.95999 6.05988 4.00999 6.05988 4.06999 6.05988V18.2599Z" fill="#00008E"/>
<path d="M2.19 4.4C1.04 4.39 0 3.46 0 2.18C0 0.92 1.01 0 2.2 0C3.44 0 4.39 1.02 4.37 2.22C4.36 3.37 3.4 4.39 2.19 4.4Z" fill="#00008E"/>
</g>
<defs>
<clipPath id="clip0_108_9753">
<rect width="18.27" height="18.27" fill="white"/>
</clipPath>
</defs>
</svg>
