<svg width="26" height="22" viewBox="0 0 26 22" fill="none" xmlns="http://www.w3.org/2000/svg">
<path d="M0.04 18.6795C2.84 18.9095 5.37 18.2295 7.7 16.4795C6.21 16.3695 5 15.8395 4.02 14.8395C3.47 14.2695 3.05 13.6095 2.78 12.7795H4.94C4.94 12.7795 4.96 12.7095 4.97 12.6795C2.44 11.8595 1.05 10.1495 0.88 7.41951C1.64 7.74951 2.34 8.03951 3.18 8.02951C0.88 6.04951 0.37 3.72951 1.65 0.949512C4.54 4.34951 8.16 6.21951 12.59 6.51951C12.56 6.20951 12.52 5.92951 12.51 5.63951C12.39 3.43951 13.59 1.39951 15.54 0.509512C17.57 -0.430488 19.85 -0.0504875 21.47 1.48951C21.62 1.62951 21.74 1.66951 21.94 1.61951C22.93 1.37951 23.87 1.03951 24.76 0.539512C24.82 0.499512 24.9 0.489512 25.01 0.439512C24.6 1.65951 23.87 2.54951 22.87 3.30951C23.18 3.24951 23.48 3.19951 23.79 3.12951C24.11 3.05951 24.42 2.96951 24.73 2.87951C25.04 2.77951 25.33 2.66951 25.72 2.52951C25.11 3.44951 24.44 4.20951 23.64 4.81951C23.26 5.10951 23.13 5.39951 23.11 5.89951C22.93 11.5295 20.57 15.9695 15.76 18.9895C13.8 20.2195 11.6 20.8195 9.29 20.9895C7.05 21.1595 4.87 20.8995 2.77 20.0995C1.82 19.7395 0.92 19.2495 0 18.8195C0.01 18.7695 0.02 18.7295 0.04 18.6795Z" fill="#00008E"/>
</svg>
