<svg width="27" height="19" viewBox="0 0 27 19" fill="none" xmlns="http://www.w3.org/2000/svg">
<path d="M13.6875 0C14.9545 0.0268868 16.4713 0.0537736 17.9971 0.0896226C18.9965 0.116509 20.0047 0.161321 21.0041 0.215094C21.584 0.250943 22.164 0.322641 22.7529 0.376415C23.1812 0.412264 23.6005 0.483962 24.0199 0.591509C24.6891 0.761792 25.2512 1.10236 25.7063 1.61321C26.0721 2.02547 26.322 2.50047 26.4647 3.03821C26.6075 3.56698 26.6699 4.10472 26.7503 4.65141C26.8484 5.26981 26.8841 5.88821 26.9109 6.51557C26.9465 7.20566 26.9912 7.88679 26.9912 8.57689C26.9912 9.5 26.9733 10.4231 26.9555 11.3462C26.9376 11.9198 26.9109 12.4934 26.8752 13.067C26.8395 13.5509 26.777 14.0439 26.7146 14.5278C26.6789 14.8594 26.6343 15.191 26.5718 15.5137C26.4647 16.0604 26.313 16.5892 25.9918 17.0552C25.5278 17.7363 24.9033 18.2024 24.1181 18.4175C23.7344 18.525 23.3418 18.5877 22.9492 18.6236C21.9588 18.7132 20.9594 18.7939 19.969 18.8566C19.2017 18.9014 18.4254 18.9193 17.6491 18.9283C16.2929 18.9552 14.9366 18.9821 13.5804 18.991C12.7773 18.991 11.9654 18.9731 11.1623 18.9552C10.966 18.9552 10.7697 18.9552 10.5735 18.9552C9.52058 18.9283 8.45878 18.9193 7.4059 18.8745C6.6564 18.8476 5.91582 18.7759 5.16631 18.7132C4.77371 18.6863 4.38112 18.6684 3.98852 18.6057C3.48885 18.534 2.98026 18.4623 2.50736 18.2561C1.74001 17.9245 1.16896 17.3868 0.794204 16.634C0.526524 16.1052 0.428375 15.5226 0.34807 14.9401C0.303457 14.6085 0.249921 14.2769 0.21423 13.9453C0.17854 13.5778 0.151772 13.2104 0.125004 12.8429C0.0803904 12.1708 0.035777 11.4986 0.0179317 10.8264C8.63603e-05 10.1722 -0.00883631 9.51792 0.0179317 8.87264C0.035777 8.03915 0.0803904 7.21462 0.125004 6.38113C0.151772 5.87028 0.17854 5.3684 0.240998 4.86651C0.321302 4.2033 0.392684 3.52217 0.597905 2.87689C0.829895 2.15094 1.25818 1.55943 1.87385 1.11132C2.39136 0.725943 2.98026 0.519811 3.61377 0.448113C4.44358 0.358491 5.27338 0.27783 6.10319 0.206132C6.56717 0.170283 7.03115 0.161321 7.50405 0.143396C8.43201 0.107547 9.35997 0.0716981 10.2879 0.0537736C11.3408 0.0268868 12.3937 0.0179245 13.6964 0L13.6875 0ZM17.8633 9.50896C15.4988 8.1467 13.161 6.7934 10.8144 5.44009V13.5868C13.161 12.2335 15.4988 10.8802 17.8633 9.51792V9.50896Z" fill="#00008E"/>
</svg>
